<svg xmlns="http://www.w3.org/2000/svg" data-name="Layer 1" viewBox="0 0 100 125" x="0px" y="0px"><title>all</title><g><g><g data-name="Zoom In"><g data-name="Calendar"><g><g><g><g><g><g><g><g><g data-name="Play - Orange"><g data-name="Arrow Right - Orange"><g><path d="M100,54.37A20.18,20.18,0,0,1,84,74.5,24.72,24.72,0,0,1,79,75C71.66,75,64.35,75,57,75a3.2,3.2,0,0,0-1.92.72q-12.43,11-24.82,22c-0.19.18-.41,0.34-0.84,0.69V75H27.69c-3.56-.1-7.16.15-10.65-0.36A20,20,0,0,1,.1,55.08q-0.2-16.75,0-33.52c0.14-11.29,9.14-20,20.59-20,16-.05,32.07,0,48.11,0,3.48,0,7,0,10.45,0,10.66,0,18.88,7,20.54,17.57a31,31,0,0,1,.19,4.92C100,34.16,100,44.26,100,54.37Z"/></g></g></g></g></g></g></g></g></g></g></g></g></g></g></g><text x="0" y="115" fill="#000000" font-size="5px" font-weight="bold" font-family="'Helvetica Neue', Helvetica, Arial-Unicode, Arial, Sans-serif">Created by i cons</text><text x="0" y="120" fill="#000000" font-size="5px" font-weight="bold" font-family="'Helvetica Neue', Helvetica, Arial-Unicode, Arial, Sans-serif">from the Noun Project</text></svg>