<svg xmlns="http://www.w3.org/2000/svg" data-name="Layer 1" viewBox="0 0 512 640" x="0px" y="0px"><title>like</title><path d="M153.36,471.23c-0.4-34.49-.41-69-0.43-103.49s0.06-69,.43-103.49c0,4.61.07-17.22,0.42-31.42q-63.88,0-127.76,0c-10.81,0-19.17,3.9-23.9,14.07C1.36,248.48.7,250.14,0,251.8V469.52c2,3.46,3.54,7.3,6.06,10.3,4.15,4.91,9.94,7,16.35,7,43.69,0,87.39.12,131.09-.05C153.42,479.29,153.38,472.82,153.36,471.23Z"/><path d="M510.57,229.52c-3.32-13-10.52-23.2-23.41-27.74a65.17,65.17,0,0,0-20.81-3.27c-37.52-.29-75.05-0.11-112.57-0.1-4.82,0-5-.3-4.23-4.95,2.33-13.69,4.31-27.44,7-41.07,3.64-18.45,4.1-36.76-2.05-54.69-5.54-16.12-11.82-32-17.83-47.94-3.37-9-9.07-15.59-18.17-19.41-17.21-7.24-34.18-7.1-50.66,1.52-10.54,5.51-16.71,14.3-16.37,26.83,0.48,17.64.61,35.3,1.33,52.93a28.82,28.82,0,0,1-3.91,16.25c-13.61,23.37-26.78,47-41,70-7.35,11.85-16.57,22.55-25.18,33.59q-0.46.59-1,1.14,0,23.87,0,47.74,0,90.35-.52,180.71c11.65,7.36,24.13,10.71,38.21,10.63,64.07-.38,128.14-0.17,192.2-0.17,11.14,0,22.15-.68,32.89-4.2,21.33-7,34.73-23.52,36.42-45.85,0.65-8.49.26-16.9-2.8-25.05-0.43-1.14.29-3.16,1.13-4.28,8.43-11.25,13.45-23.7,12.55-37.91-0.3-4.9-1.84-9.78-3.35-14.5-0.8-2.54-.79-4.23.93-6.39,8-10.09,12.89-21.55,12.5-34.5-0.18-6.11-2.44-12.15-3.59-18.24-0.28-1.46-.51-3.59.28-4.47,6.9-7.69,10.74-16.75,12.7-26.75a3.07,3.07,0,0,1,.7-1V234.28C511.52,232.69,511,231.12,510.57,229.52Z"/><text x="0" y="527" fill="#000000" font-size="5px" font-weight="bold" font-family="'Helvetica Neue', Helvetica, Arial-Unicode, Arial, Sans-serif">Created by i cons</text><text x="0" y="532" fill="#000000" font-size="5px" font-weight="bold" font-family="'Helvetica Neue', Helvetica, Arial-Unicode, Arial, Sans-serif">from the Noun Project</text></svg>