<svg xmlns="http://www.w3.org/2000/svg" xmlns:xlink="http://www.w3.org/1999/xlink" version="1.1" x="0px" y="0px" viewBox="0 0 100 125" enable-background="new 0 0 100 100" xml:space="preserve"><path d="M50,30.501c-15.613,0-28.746,9.073-32.637,19.499C21.254,60.426,34.387,69.499,50,69.499  c15.613,0,28.746-9.073,32.638-19.499C78.746,39.574,65.613,30.501,50,30.501z M50,62.255c-6.768,0-12.255-5.486-12.255-12.255  c0-6.768,5.488-12.255,12.255-12.255c6.77,0,12.256,5.487,12.256,12.255C62.256,56.769,56.77,62.255,50,62.255z M50,45.275  c-2.609,0-4.725,2.116-4.725,4.725s2.116,4.725,4.725,4.725s4.725-2.115,4.725-4.725S52.609,45.275,50,45.275z"/><text x="0" y="115" fill="#000000" font-size="5px" font-weight="bold" font-family="'Helvetica Neue', Helvetica, Arial-Unicode, Arial, Sans-serif">Created by Mushu</text><text x="0" y="120" fill="#000000" font-size="5px" font-weight="bold" font-family="'Helvetica Neue', Helvetica, Arial-Unicode, Arial, Sans-serif">from the Noun Project</text></svg>